<mxfile host="app.diagrams.net" modified="2023-05-30T10:43:03.485Z" agent="Mozilla/5.0 (Windows NT 10.0; Win64; x64) AppleWebKit/537.36 (KHTML, like Gecko) Chrome/113.0.0.0 Safari/537.36" etag="yFoxRnGlhcgDPUW0Nr-8" version="21.3.5" type="github">
  <diagram name="Page-1" id="U9FslpP_4WRwXoePvXMz">
    <mxGraphModel dx="1434" dy="1591" grid="1" gridSize="10" guides="1" tooltips="1" connect="1" arrows="1" fold="1" page="1" pageScale="1" pageWidth="1169" pageHeight="827" math="0" shadow="0">
      <root>
        <mxCell id="0" />
        <mxCell id="1" parent="0" />
        <mxCell id="bDbSbjliOwDVEzyQ-WYC-8" style="edgeStyle=orthogonalEdgeStyle;rounded=0;orthogonalLoop=1;jettySize=auto;html=1;exitX=0.5;exitY=1;exitDx=0;exitDy=0;entryX=0.5;entryY=0;entryDx=0;entryDy=0;endArrow=open;endFill=0;" edge="1" parent="1" source="bDbSbjliOwDVEzyQ-WYC-1" target="bDbSbjliOwDVEzyQ-WYC-5">
          <mxGeometry relative="1" as="geometry" />
        </mxCell>
        <mxCell id="bDbSbjliOwDVEzyQ-WYC-1" value="&amp;lt;&amp;lt;Class&amp;gt;&amp;gt;&lt;br&gt;Waiter" style="swimlane;whiteSpace=wrap;html=1;startSize=40;" vertex="1" parent="1">
          <mxGeometry x="270" y="-440" width="270" height="200" as="geometry" />
        </mxCell>
        <mxCell id="bDbSbjliOwDVEzyQ-WYC-2" value="Waiter" style="text;html=1;align=center;verticalAlign=middle;resizable=0;points=[];autosize=1;strokeColor=none;fillColor=none;" vertex="1" parent="bDbSbjliOwDVEzyQ-WYC-1">
          <mxGeometry y="50" width="60" height="30" as="geometry" />
        </mxCell>
        <mxCell id="bDbSbjliOwDVEzyQ-WYC-12" value="setCommandBuilder(CommandBuilder): void&lt;br&gt;" style="text;html=1;align=center;verticalAlign=middle;resizable=0;points=[];autosize=1;strokeColor=none;fillColor=none;" vertex="1" parent="bDbSbjliOwDVEzyQ-WYC-1">
          <mxGeometry x="-10" y="85" width="260" height="30" as="geometry" />
        </mxCell>
        <mxCell id="bDbSbjliOwDVEzyQ-WYC-13" value="getCommand(): Command&lt;br&gt;constructCommand(): void&lt;br&gt;" style="text;html=1;align=center;verticalAlign=middle;resizable=0;points=[];autosize=1;strokeColor=none;fillColor=none;" vertex="1" parent="bDbSbjliOwDVEzyQ-WYC-1">
          <mxGeometry x="-10" y="100" width="170" height="40" as="geometry" />
        </mxCell>
        <mxCell id="bDbSbjliOwDVEzyQ-WYC-9" style="edgeStyle=orthogonalEdgeStyle;rounded=0;orthogonalLoop=1;jettySize=auto;html=1;exitX=1;exitY=0.5;exitDx=0;exitDy=0;endArrow=block;endFill=0;" edge="1" parent="1" source="bDbSbjliOwDVEzyQ-WYC-3">
          <mxGeometry relative="1" as="geometry">
            <mxPoint x="330" y="-110" as="targetPoint" />
          </mxGeometry>
        </mxCell>
        <mxCell id="bDbSbjliOwDVEzyQ-WYC-3" value="&amp;lt;&amp;lt;Class&amp;gt;&amp;gt;&lt;br&gt;SweetBrunchCommandBuilder" style="swimlane;whiteSpace=wrap;html=1;startSize=40;" vertex="1" parent="1">
          <mxGeometry x="50" y="-170" width="200" height="200" as="geometry" />
        </mxCell>
        <mxCell id="bDbSbjliOwDVEzyQ-WYC-4" value="&amp;lt;&amp;lt;Class&amp;gt;&amp;gt;&lt;br&gt;Command" style="swimlane;whiteSpace=wrap;html=1;startSize=40;" vertex="1" parent="1">
          <mxGeometry x="650" y="-170" width="200" height="200" as="geometry" />
        </mxCell>
        <mxCell id="bDbSbjliOwDVEzyQ-WYC-28" value="cheesecake: String&lt;br&gt;" style="text;html=1;align=center;verticalAlign=middle;resizable=0;points=[];autosize=1;strokeColor=none;fillColor=none;" vertex="1" parent="bDbSbjliOwDVEzyQ-WYC-4">
          <mxGeometry x="-10" y="45" width="130" height="30" as="geometry" />
        </mxCell>
        <mxCell id="bDbSbjliOwDVEzyQ-WYC-29" value="biscuits: String" style="text;html=1;align=center;verticalAlign=middle;resizable=0;points=[];autosize=1;strokeColor=none;fillColor=none;" vertex="1" parent="bDbSbjliOwDVEzyQ-WYC-4">
          <mxGeometry y="60" width="100" height="30" as="geometry" />
        </mxCell>
        <mxCell id="bDbSbjliOwDVEzyQ-WYC-7" style="edgeStyle=orthogonalEdgeStyle;rounded=0;orthogonalLoop=1;jettySize=auto;html=1;exitX=1;exitY=0.5;exitDx=0;exitDy=0;entryX=0;entryY=0.5;entryDx=0;entryDy=0;endArrow=open;endFill=0;" edge="1" parent="1" source="bDbSbjliOwDVEzyQ-WYC-5" target="bDbSbjliOwDVEzyQ-WYC-4">
          <mxGeometry relative="1" as="geometry">
            <Array as="points">
              <mxPoint x="530" y="-70" />
            </Array>
          </mxGeometry>
        </mxCell>
        <mxCell id="bDbSbjliOwDVEzyQ-WYC-5" value="&amp;lt;&amp;lt;Class&amp;gt;&amp;gt;&lt;br&gt;CommandBuilder" style="swimlane;whiteSpace=wrap;html=1;startSize=40;" vertex="1" parent="1">
          <mxGeometry x="330" y="-200" width="200" height="240" as="geometry" />
        </mxCell>
        <mxCell id="bDbSbjliOwDVEzyQ-WYC-17" value="CommandBuilder()" style="text;html=1;align=center;verticalAlign=middle;resizable=0;points=[];autosize=1;strokeColor=none;fillColor=none;" vertex="1" parent="bDbSbjliOwDVEzyQ-WYC-5">
          <mxGeometry y="50" width="120" height="30" as="geometry" />
        </mxCell>
        <mxCell id="bDbSbjliOwDVEzyQ-WYC-18" value="getCommand(): Command" style="text;html=1;align=center;verticalAlign=middle;resizable=0;points=[];autosize=1;strokeColor=none;fillColor=none;" vertex="1" parent="bDbSbjliOwDVEzyQ-WYC-5">
          <mxGeometry y="70" width="170" height="30" as="geometry" />
        </mxCell>
        <mxCell id="bDbSbjliOwDVEzyQ-WYC-19" value="createNewCommand() : void" style="text;html=1;align=center;verticalAlign=middle;resizable=0;points=[];autosize=1;strokeColor=none;fillColor=none;" vertex="1" parent="bDbSbjliOwDVEzyQ-WYC-5">
          <mxGeometry y="90" width="180" height="30" as="geometry" />
        </mxCell>
        <mxCell id="bDbSbjliOwDVEzyQ-WYC-21" value="buildCheesecake():void" style="text;html=1;align=center;verticalAlign=middle;resizable=0;points=[];autosize=1;strokeColor=none;fillColor=none;" vertex="1" parent="bDbSbjliOwDVEzyQ-WYC-5">
          <mxGeometry y="110" width="150" height="30" as="geometry" />
        </mxCell>
        <mxCell id="bDbSbjliOwDVEzyQ-WYC-20" value="buildDrink():void" style="text;html=1;align=center;verticalAlign=middle;resizable=0;points=[];autosize=1;strokeColor=none;fillColor=none;" vertex="1" parent="bDbSbjliOwDVEzyQ-WYC-5">
          <mxGeometry y="170" width="110" height="30" as="geometry" />
        </mxCell>
        <mxCell id="bDbSbjliOwDVEzyQ-WYC-22" value="buildBiscuits():void" style="text;html=1;align=center;verticalAlign=middle;resizable=0;points=[];autosize=1;strokeColor=none;fillColor=none;" vertex="1" parent="bDbSbjliOwDVEzyQ-WYC-5">
          <mxGeometry y="130" width="120" height="30" as="geometry" />
        </mxCell>
        <mxCell id="bDbSbjliOwDVEzyQ-WYC-23" value="buildIceCream():void" style="text;html=1;align=center;verticalAlign=middle;resizable=0;points=[];autosize=1;strokeColor=none;fillColor=none;" vertex="1" parent="bDbSbjliOwDVEzyQ-WYC-5">
          <mxGeometry y="150" width="130" height="30" as="geometry" />
        </mxCell>
        <mxCell id="bDbSbjliOwDVEzyQ-WYC-24" value="buildPavlova():void" style="text;html=1;align=center;verticalAlign=middle;resizable=0;points=[];autosize=1;strokeColor=none;fillColor=none;" vertex="1" parent="bDbSbjliOwDVEzyQ-WYC-5">
          <mxGeometry x="5" y="190" width="120" height="30" as="geometry" />
        </mxCell>
        <mxCell id="bDbSbjliOwDVEzyQ-WYC-10" style="edgeStyle=orthogonalEdgeStyle;rounded=0;orthogonalLoop=1;jettySize=auto;html=1;exitX=0.5;exitY=0;exitDx=0;exitDy=0;entryX=0.5;entryY=1;entryDx=0;entryDy=0;endArrow=block;endFill=0;" edge="1" parent="1" source="bDbSbjliOwDVEzyQ-WYC-6" target="bDbSbjliOwDVEzyQ-WYC-5">
          <mxGeometry relative="1" as="geometry" />
        </mxCell>
        <mxCell id="bDbSbjliOwDVEzyQ-WYC-6" value="&amp;lt;&amp;lt;Class&amp;gt;&amp;gt;&lt;br&gt;SimpleCommandBuilder" style="swimlane;whiteSpace=wrap;html=1;startSize=40;" vertex="1" parent="1">
          <mxGeometry x="330" y="120" width="200" height="200" as="geometry" />
        </mxCell>
        <mxCell id="bDbSbjliOwDVEzyQ-WYC-11" value="&amp;lt;&amp;lt;Class&amp;gt;&amp;gt;&lt;br&gt;NewCommandBuilder" style="swimlane;whiteSpace=wrap;html=1;" vertex="1" parent="1">
          <mxGeometry x="650" y="-530" width="200" height="200" as="geometry" />
        </mxCell>
        <mxCell id="bDbSbjliOwDVEzyQ-WYC-15" value="NewCommandBuilder()&lt;br&gt;" style="text;html=1;align=center;verticalAlign=middle;resizable=0;points=[];autosize=1;strokeColor=none;fillColor=none;" vertex="1" parent="bDbSbjliOwDVEzyQ-WYC-11">
          <mxGeometry y="40" width="150" height="30" as="geometry" />
        </mxCell>
        <mxCell id="bDbSbjliOwDVEzyQ-WYC-16" value="main(String[]): void" style="text;html=1;align=center;verticalAlign=middle;resizable=0;points=[];autosize=1;strokeColor=none;fillColor=none;" vertex="1" parent="bDbSbjliOwDVEzyQ-WYC-11">
          <mxGeometry y="60" width="120" height="30" as="geometry" />
        </mxCell>
        <mxCell id="bDbSbjliOwDVEzyQ-WYC-27" value="" style="endArrow=none;html=1;rounded=0;" edge="1" parent="1">
          <mxGeometry width="50" height="50" relative="1" as="geometry">
            <mxPoint x="650" y="-50" as="sourcePoint" />
            <mxPoint x="850" y="-50" as="targetPoint" />
            <Array as="points">
              <mxPoint x="680" y="-50" />
              <mxPoint x="760" y="-50" />
            </Array>
          </mxGeometry>
        </mxCell>
      </root>
    </mxGraphModel>
  </diagram>
</mxfile>
